<?xml version="1.0" standalone="no"?><!DOCTYPE svg PUBLIC "-//W3C//DTD SVG 1.1//EN" "http://www.w3.org/Graphics/SVG/1.1/DTD/svg11.dtd"><svg t="1748589219680" class="icon" viewBox="0 0 1024 1024" version="1.1" xmlns="http://www.w3.org/2000/svg" p-id="1169" xmlns:xlink="http://www.w3.org/1999/xlink" width="200" height="200"><path d="M831.240828 216.664276a72.103724 72.103724 0 1 0-144.172138 0 72.103724 72.103724 0 0 0 144.207448 0z m61.793103 0a133.861517 133.861517 0 1 1-267.723034 0 133.861517 133.861517 0 0 1 267.723034 0zM528.843034 942.962759a30.896552 30.896552 0 0 1-33.332965-52.012138l33.332965 52.012138zM429.656276 268.146759c41.136552 0 92.760276 1.518345 137.074758 17.231448 46.362483 16.41931 87.04 49.363862 99.186759 110.697931l1.165241 7.309241c4.590345 36.263724-10.451862 67.442759-31.179034 91.630345-21.751172 25.423448-51.835586 45.903448-80.295724 61.651862-10.310621 5.684966-20.762483 10.769655-30.790621 15.536552 8.545103 3.177931 17.37269 6.708966 26.235586 10.557793 29.025103 12.711724 60.168828 29.519448 85.239173 51.305931 24.999724 21.751172 46.609655 50.776276 50.599724 87.710897l0.494345 6.038069c1.624276 30.049103-8.862897 58.262069-22.775173 82.131862-14.971586 25.63531-35.380966 48.940138-55.119448 68.148965a566.801655 566.801655 0 0 1-80.048552 64.47669l-0.388413 0.282483-0.141242 0.07062-0.03531 0.035311h-0.035311l-16.666482-25.988414-16.701793-26.023724h0.07062l0.176552-0.176552c0.247172-0.141241 0.635586-0.353103 1.129931-0.706207l4.449104-3.001379a505.89131 505.89131 0 0 0 65.076965-53.248c17.513931-17.090207 33.721379-35.945931 44.844138-54.978207 9.816276-16.843034 14.547862-31.885241 14.547862-44.950069l-0.317793-5.473104c-1.694897-15.677793-11.193379-31.602759-29.73131-47.668965-18.432-16.066207-43.255172-29.943172-69.384828-41.383724a567.507862 567.507862 0 0 0-100.881655-32.662069l-1.553655-0.353104-0.353104-0.07062h-0.07062a30.896552 30.896552 0 0 1-2.401104-59.956966h0.070621l0.353103-0.141241 1.694897-0.494345 6.638345-2.118621c5.826207-1.871448 14.194759-4.731586 24.187586-8.474482 20.126897-7.521103 46.362483-18.502621 71.68-32.485518 25.670621-14.230069 48.445793-30.437517 63.276138-47.774896 12.711724-14.830345 17.902345-28.248276 17.019586-41.242483l-0.706207-5.508414c-6.885517-34.85131-27.965793-53.389241-59.180138-64.476689-33.262345-11.758345-75.140414-13.665103-116.453517-13.665104-36.193103 0-68.254897 9.074759-91.559724 18.39669a253.033931 253.033931 0 0 0-26.906483 12.605793 159.461517 159.461517 0 0 0-6.885517 3.954758c-0.706207 0.459034-1.235862 0.741517-1.553655 0.918069l-0.176552 0.141242a30.861241 30.861241 0 1 1-34.286345-51.376552l17.125517 25.705931a4081.875862 4081.875862 0 0 1-17.125517-25.741241H268.358621l0.105931-0.105931 0.247172-0.176552 0.776828-0.494345 2.648276-1.659586a314.050207 314.050207 0 0 1 43.008-21.150897c28.248276-11.29931 68.254897-22.810483 114.511448-22.810482z" fill="#303030" p-id="1170"></path><path d="M895.858759 357.693793a30.896552 30.896552 0 0 1 56.214069 25.6v0.03531l-0.035311 0.035311-0.03531 0.141241-0.176552 0.353104-0.600276 1.306482-2.224551 4.555035a419.133793 419.133793 0 0 1-37.640828 62.004965c-12.358621 16.595862-28.036414 34.356966-46.468414 47.315862-17.302069 12.182069-39.794759 21.963034-65.288827 18.714483l-5.08469-0.847448c-18.149517-3.531034-36.157793-13.876966-47.457103-21.115586a268.641103 268.641103 0 0 1-20.833104-14.830345l-0.353103-0.282483-0.105931-0.105931-0.070621-0.03531v-0.035311l16.878345-20.797793-16.948966 20.797793a30.896552 30.896552 0 0 1 39.017931-47.916138l0.141242 0.105932 0.812138 0.600275 3.213241 2.471725c2.895448 2.118621 6.956138 5.049379 11.617103 8.050758 10.27531 6.603034 19.950345 11.29931 25.882483 12.429242l4.166621 0.282482c4.625655-0.247172 10.769655-2.295172 18.855724-7.980138 10.840276-7.627034 21.963034-19.667862 32.414897-33.686069a344.982069 344.982069 0 0 0 31.885241-52.541793l1.694896-3.566345 0.423725-0.882758 0.07062-0.176552h0.035311zM340.532966 641.129931a30.896552 30.896552 0 0 1 50.176 35.981241l-25.988414-16.701793 25.988414 16.737104-0.070621 0.03531-0.070621 0.141241-0.353103 0.529656c-0.247172 0.423724-0.635586 1.05931-1.165242 1.800827l-4.378482 6.567724c-3.707586 5.508414-8.933517 13.206069-15.042207 21.821793-10.522483 14.724414-24.399448 33.191724-38.135173 48.269242l-5.826207 6.249931c-35.84 36.793379-91.030069 67.230897-134.426482 87.852138a962.877793 962.877793 0 0 1-74.257656 31.426207l-4.802206 1.765517-1.306483 0.459034-0.388414 0.141242-0.105931 0.03531h-0.03531l-3.03669 0.918069a30.896552 30.896552 0 0 1-17.37269-59.215448l0.070621-0.03531 0.211862-0.070621a149.857103 149.857103 0 0 0 5.296552-1.942069c3.742897-1.412414 9.25131-3.460414 16.066207-6.17931 13.629793-5.402483 32.485517-13.27669 53.177379-23.128276 42.372414-20.126897 88.946759-46.750897 116.665379-75.175724l9.357242-10.24c9.639724-11.22869 19.773793-24.717241 28.530758-37.040552a875.343448 875.343448 0 0 0 18.078897-26.341517l1.024-1.588966 0.247172-0.388414 0.070621-0.07062 1.800828-2.612966z" fill="#1BAFA2" p-id="1171"></path></svg>